<?xml version="1.0" encoding="iso-8859-1"?>
<!-- Uploaded to: SVG Repo, www.svgrepo.com, Generator: SVG Repo Mixer Tools -->
<svg height="800px" width="800px" version="1.1" id="Layer_1" xmlns="http://www.w3.org/2000/svg" xmlns:xlink="http://www.w3.org/1999/xlink" 
	 viewBox="0 0 512 512" xml:space="preserve">
<g>
	<polygon style="fill:#EE3840;" points="236.385,422.905 236.385,294.239 155.445,294.239 155.445,470.63 264.556,470.63 
		264.556,433.261 	"/>
	<path style="fill:#EE3840;" d="M19.311,162.224c-6.48,16.361-10.044,34.181-10.044,52.819s3.564,36.459,10.044,52.818h46.034
		l0.002-105.638L19.311,162.224L19.311,162.224z"/>
</g>
<path style="fill:#ADA7A4;" d="M233.657,112.609h-78.212c-56.574,0-102.435,45.861-102.435,102.435s45.862,102.435,102.435,102.435
	h78.231L233.657,112.609z"/>
<path style="fill:#E6E2E0;" d="M417.539,385.359V44.729l-181.154,67.879h-2.728c-8.376,28.711-13.326,64.107-13.326,102.405
	c0,38.326,4.956,73.743,13.343,102.466h2.711L417.539,385.359z"/>
<path style="fill:#7A7674;" d="M431.162,41.37c-31.855,0-58.683,53.929-66.763,127.357l39.233,46.285l-39.233,46.285
	c8.08,73.428,34.908,127.357,66.763,127.357c38.248,0,69.254-77.743,69.254-173.642S469.41,41.37,431.162,41.37z"/>
<g>
	<path style="fill:#C21B23;" d="M235.274,403.98h-10.473c-6.398,0-11.584-5.187-11.584-11.584c0-6.397,5.186-11.584,11.584-11.584
		h10.473c6.398,0,11.584,5.187,11.584,11.584C246.858,398.792,241.672,403.98,235.274,403.98z"/>
	<path style="fill:#C21B23;" d="M235.274,368.838h-10.473c-6.398,0-11.584-5.187-11.584-11.584c0-6.397,5.186-11.584,11.584-11.584
		h10.473c6.398,0,11.584,5.187,11.584,11.584C246.858,363.651,241.672,368.838,235.274,368.838z"/>
</g>
<path style="fill:#181818;" d="M403.631,168.728h-39.233c-1.622,14.737-2.492,30.256-2.492,46.285s0.87,31.548,2.492,46.285h39.233
	c25.563,0,46.285-20.722,46.285-46.285C449.917,189.45,429.194,168.728,403.631,168.728z"/>
<g>
	<path style="fill:#11113F;" d="M231.915,215.013c0-9.127,0.342-18.259,1.016-27.146c0.484-6.379-4.295-11.944-10.673-12.428
		c-6.38-0.477-11.943,4.295-12.427,10.674c-0.719,9.467-1.083,19.19-1.083,28.899c0,24.555,2.246,48.059,6.678,69.858
		c1.117,5.491,5.945,9.279,11.339,9.279c0.765,0,1.542-0.075,2.32-0.234c6.269-1.275,10.319-7.39,9.045-13.66
		C234.064,260.259,231.915,237.698,231.915,215.013z"/>
	<path style="fill:#11113F;" d="M403.631,157.143c-6.398,0-11.584,5.187-11.584,11.584s5.186,11.584,11.584,11.584
		c19.135,0,34.702,15.567,34.702,34.702s-15.567,34.701-34.702,34.701c-6.398,0-11.584,5.187-11.584,11.584
		c0,6.397,5.186,11.584,11.584,11.584c31.91,0,57.87-25.959,57.87-57.869S435.541,157.143,403.631,157.143z"/>
	<path style="fill:#11113F;" d="M490.891,87.939c-14.956-37.5-36.168-58.151-59.729-58.151c-6.171,0-12.178,1.429-17.956,4.194
		l-178.92,67.043h-78.841c-38.99,0-73.466,19.676-94.035,49.617H21.628c-4.752,0-9.02,2.901-10.769,7.317
		C3.654,176.148,0,195.355,0,215.045s3.654,38.895,10.859,57.083c1.75,4.417,6.019,7.317,10.769,7.317H61.41
		c18.507,26.938,48.27,45.567,82.452,49.032v142.152c0,6.397,5.186,11.584,11.584,11.584h109.11c6.398,0,11.584-5.187,11.584-11.584
		v-37.368c0-4.856-3.029-9.196-7.586-10.872l-20.584-7.568v-10.897c5.876-0.56,10.473-5.506,10.473-11.528
		s-4.596-10.969-10.473-11.528v-12.086c5.876-0.56,10.473-5.506,10.473-11.528s-4.596-10.969-10.473-11.528v-11.537l165.506,62.017
		c0.063,0.023,0.125,0.038,0.186,0.06c5.638,2.623,11.492,3.973,17.501,3.973c23.561,0,44.773-20.651,59.729-58.151
		C504.503,307.959,512,262.83,512,215.013S504.503,122.068,490.891,87.939z M49.145,256.278H29.746
		c-4.368-13.264-6.578-27.1-6.578-41.233c0-14.134,2.21-27.97,6.578-41.236h19.4c-4.98,12.794-7.719,26.7-7.719,41.236
		C41.427,229.579,44.165,243.484,49.145,256.278z M252.972,441.344v17.701h-85.943V329.062h57.773v16.609
		c-6.398,0-11.584,5.187-11.584,11.584c0,6.397,5.186,11.584,11.584,11.584v11.974c-6.398,0-11.584,5.187-11.584,11.584
		c0,6.397,5.186,11.584,11.584,11.584v18.925c0,4.856,3.029,9.196,7.586,10.872L252.972,441.344z M241.491,307.022
		c-1.542-0.76-3.271-1.198-5.106-1.198c-0.426,0-0.846,0.027-1.259,0.072h-78.422c-0.414-0.045-0.834-0.072-1.259-0.072
		c-0.317,0-0.629,0.022-0.939,0.047c-49.663-0.509-89.912-41.047-89.912-90.827c0-50.096,40.756-90.852,90.851-90.852h65.117
		c-2.513,8.647-4.66,17.884-6.412,27.628c-1.132,6.298,3.055,12.319,9.352,13.45c0.694,0.125,1.382,0.185,2.063,0.185
		c5.5,0,10.38-3.934,11.388-9.536c2.255-12.546,5.198-24.1,8.76-34.436l133.191-49.908c-2.634,5.031-5.129,10.489-7.472,16.362
		c-13.612,34.13-21.109,79.259-21.109,127.076c0,47.815,7.497,92.945,21.109,127.074c2.354,5.902,4.864,11.386,7.512,16.438
		L241.491,307.022z M469.373,333.505c-10.881,27.281-25.164,43.566-38.211,43.566s-27.331-16.287-38.211-43.566
		c-12.549-31.464-19.461-73.545-19.461-118.492s6.911-87.028,19.461-118.492c10.881-27.281,25.164-43.566,38.211-43.566
		s27.331,16.287,38.211,43.565c12.549,31.465,19.46,73.546,19.46,118.493S481.922,302.042,469.373,333.505z"/>
</g>
</svg>