<?xml version="1.0" encoding="iso-8859-1"?>
<!-- Uploaded to: SVG Repo, www.svgrepo.com, Generator: SVG Repo Mixer Tools -->
<svg height="800px" width="800px" version="1.1" id="Layer_1" xmlns="http://www.w3.org/2000/svg" xmlns:xlink="http://www.w3.org/1999/xlink" 
	 viewBox="0 0 512 512" xml:space="preserve">
<g transform="translate(1 1)">
	<g>
		<path style="fill:#E2E3E5;" d="M223,8.143v384l164.571,109.714V63c0-30.171,24.686-54.857,54.857-54.857H223z"/>
		<path style="fill:#E2E3E5;" d="M441.514,8.143c-30.171,0-53.943,24.686-53.943,54.857v155.429h100.571V54.771
			C488.143,29.171,467.114,8.143,441.514,8.143"/>
	</g>
	<path style="fill:#CCCCCC;" d="M414.086,8.143c-30.171,0-53.943,24.686-53.943,54.857v155.429h100.571V54.771
		C460.714,29.171,439.686,8.143,414.086,8.143"/>
	<g>
		<path style="fill:#E2E3E5;" d="M386.657,8.143c-30.171,0-53.943,24.686-53.943,54.857v155.429h100.571V54.771
			C433.286,29.171,412.257,8.143,386.657,8.143"/>
		<path style="fill:#E2E3E5;" d="M77.629,8.143C52.029,8.143,31,29.171,31,54.771v447.086l164.571-109.714l164.571,109.714V63
			c0-30.171,24.686-54.857,54.857-54.857H77.629z"/>
	</g>
	<path style="fill:#FFFFFF;" d="M85.857,8.143C55.686,8.143,31,32.829,31,63v429.714l27.429-9.143V63
		c0-30.171,24.686-54.857,54.857-54.857H85.857z"/>
	<g>
		<path style="fill:#B6B6B6;" d="M360.143,511c-1.829,0-3.657-0.914-5.486-1.829L195.571,403.114L36.486,509.171
			c-2.743,1.829-6.4,1.829-9.143,0c-3.657-0.914-5.486-3.657-5.486-7.314V54.771C21.857,23.686,46.543-1,77.629-1H415
			c5.486,0,9.143,3.657,9.143,9.143s-3.657,9.143-9.143,9.143c-25.6,0-45.714,20.114-45.714,45.714v438.857
			c0,3.657-1.829,6.4-4.571,8.229C362.886,511,361.971,511,360.143,511z M77.629,17.286c-21.029,0-37.486,16.457-37.486,37.486
			v429.714l149.943-100.571c2.743-1.829,7.314-1.829,10.057,0l149.943,100.571V63c0-18.286,7.314-33.829,19.2-45.714H77.629z"/>
		<path style="fill:#B6B6B6;" d="M460.714,227.571H360.143c-5.486,0-9.143-3.657-9.143-9.143V63c0-34.743,28.343-63.086,63.086-64
			l0,0c31.086,0,55.771,25.6,55.771,55.771v163.657C469.857,223.914,466.2,227.571,460.714,227.571z M369.286,209.286h82.286V54.771
			c0-20.114-16.457-37.486-37.486-37.486c-24.686,0-44.8,21.029-44.8,45.714V209.286z"/>
	</g>
</g>
</svg>