<?xml version="1.0" encoding="iso-8859-1"?>
<!-- Uploaded to: SVG Repo, www.svgrepo.com, Generator: SVG Repo Mixer Tools -->
<svg height="800px" width="800px" version="1.1" id="Layer_1" xmlns="http://www.w3.org/2000/svg" xmlns:xlink="http://www.w3.org/1999/xlink" 
	 viewBox="0 0 503.467 503.467" xml:space="preserve">
<g transform="translate(1 1)">
	<path style="fill:#FF7474;" d="M498.2,37.4v426.667c0,18.773-15.36,34.133-34.133,34.133H37.4
		c-18.773,0-34.133-15.36-34.133-34.133V37.4c0-18.773,15.36-34.133,34.133-34.133h426.667C482.84,3.267,498.2,18.627,498.2,37.4"/>
	<path style="fill:#AAB1BA;" d="M250.733,233.667c9.387,0,17.067,7.68,17.067,17.067c0,9.387-7.68,17.067-17.067,17.067
		c-9.387,0-17.067-7.68-17.067-17.067C233.667,241.347,241.347,233.667,250.733,233.667"/>
	<path style="fill:#ECF4F7;" d="M250.733,37.4c117.76,0,213.333,95.573,213.333,213.333s-95.573,213.333-213.333,213.333
		c-117.76,0-213.333-95.573-213.333-213.333S132.973,37.4,250.733,37.4 M233.667,250.733c0,9.387,7.68,17.067,17.067,17.067
		c9.387,0,17.067-7.68,17.067-17.067c0-9.387-7.68-17.067-17.067-17.067C241.347,233.667,233.667,241.347,233.667,250.733"/>
</g>
<path style="fill:#51565F;" d="M465.067,503.467c-2.56,0-4.267-1.707-4.267-4.267c0-2.56,1.707-4.267,4.267-4.267
	c16.213,0,29.867-13.653,29.867-29.867V38.4c0-16.213-13.653-29.867-29.867-29.867H38.4C22.187,8.533,8.533,22.187,8.533,38.4
	v426.667c0,16.213,13.653,29.867,29.867,29.867h392.533c2.56,0,4.267,1.707,4.267,4.267c0,2.56-1.707,4.267-4.267,4.267H38.4
	c-21.333,0-38.4-17.067-38.4-38.4V38.4C0,17.067,17.067,0,38.4,0h426.667c21.333,0,38.4,17.067,38.4,38.4v426.667
	C503.467,486.4,486.4,503.467,465.067,503.467z M251.733,469.333c-120.32,0-217.6-97.28-217.6-217.6s97.28-217.6,217.6-217.6
	s217.6,97.28,217.6,217.6S372.053,469.333,251.733,469.333z M251.733,42.667c-115.2,0-209.067,93.867-209.067,209.067
	S136.533,460.8,251.733,460.8S460.8,366.933,460.8,251.733S366.933,42.667,251.733,42.667z M251.733,435.2
	c-2.56,0-4.267-1.707-4.267-4.267v-25.6c0-2.56,1.707-4.267,4.267-4.267c2.56,0,4.267,1.707,4.267,4.267v25.6
	C256,433.493,254.293,435.2,251.733,435.2z M341.333,412.16c-1.707,0-2.56-0.853-3.413-2.56l-4.267-7.68
	c0-0.853-0.853-1.707-0.853-2.56c0-1.707,0.853-2.56,2.56-3.413s4.267-0.853,5.973,1.707l4.267,7.68c0,0.853,0.853,1.707,0.853,2.56
	c0,1.707-0.853,2.56-2.56,3.413C343.04,412.16,342.187,412.16,341.333,412.16z M159.573,411.307c-0.853,0-1.707,0-1.707-0.853
	c-1.707-0.853-2.56-2.56-2.56-3.413s0-1.707,0.853-2.56l4.267-7.68c0.853-1.707,3.413-2.56,5.973-1.707
	c1.707,0.853,2.56,2.56,2.56,3.413c0,0.853,0,1.707-0.853,2.56l-4.267,7.68C162.987,411.307,161.28,411.307,159.573,411.307z
	 M407.04,348.16c-0.853,0-1.707,0-2.56-0.853l-7.68-4.267c-1.707-0.853-2.56-2.56-2.56-3.413s0-1.707,0.853-2.56
	c0.853-1.707,3.413-2.56,5.973-1.707l7.68,4.267c1.707,0.853,2.56,2.56,2.56,3.413s0,1.707-0.853,2.56
	C410.453,347.307,408.747,348.16,407.04,348.16z M95.573,345.6c-1.707,0-2.56-0.853-3.413-2.56c0-0.853-0.853-1.707-0.853-2.56
	c0-1.707,0.853-2.56,1.707-3.413l7.68-4.267c1.707-0.853,4.267-0.853,5.973,1.707c0,0.853,0.853,1.707,0.853,2.56
	c0,1.707-0.853,2.56-1.707,3.413l-7.68,4.267C96.427,345.6,96.427,345.6,95.573,345.6z M251.733,290.133
	c-2.56,0-4.267-1.707-4.267-4.267v-12.8c-8.533-1.707-15.36-8.533-16.213-17.067H217.6c-2.56,0-4.267-1.707-4.267-4.267
	c0-2.56,1.707-4.267,4.267-4.267h13.653c1.707-8.533,8.533-15.36,16.213-16.213V72.533c0-2.56,1.707-4.267,4.267-4.267
	c2.56,0,4.267,1.707,4.267,4.267v158.72c8.533,1.707,15.36,8.533,17.067,16.213H371.2c2.56,0,4.267,1.707,4.267,4.267
	c0,2.56-1.707,4.267-4.267,4.267h-98.133c-1.707,8.533-8.533,15.36-17.067,17.067v12.8C256,288.427,254.293,290.133,251.733,290.133
	z M251.733,238.933c-6.827,0-12.8,5.973-12.8,12.8c0,6.827,5.973,12.8,12.8,12.8c6.827,0,12.8-5.973,12.8-12.8
	C264.533,244.907,258.56,238.933,251.733,238.933z M98.133,256h-25.6c-2.56,0-4.267-1.707-4.267-4.267
	c0-2.56,1.707-4.267,4.267-4.267h25.6c2.56,0,4.267,1.707,4.267,4.267C102.4,254.293,100.693,256,98.133,256z M430.933,256h-25.6
	c-2.56,0-4.267-1.707-4.267-4.267c0-2.56,1.707-4.267,4.267-4.267h25.6c2.56,0,4.267,1.707,4.267,4.267
	C435.2,254.293,433.493,256,430.933,256z M401.067,170.667c-1.707,0-2.56-0.853-3.413-2.56c0-0.853-0.853-1.707-0.853-2.56
	c0-1.707,0.853-2.56,2.56-3.413l7.68-4.267c1.707-0.853,4.267-0.853,5.973,1.707c0,0.853,0.853,1.707,0.853,2.56
	c0,1.707-0.853,2.56-2.56,3.413l-7.68,4.267C401.92,170.667,401.067,170.667,401.067,170.667z M103.253,168.107
	c-0.853,0-1.707,0-1.707-0.853l-7.68-4.267c-1.707-0.853-2.56-2.56-2.56-3.413c0-0.853,0-1.707,0.853-2.56
	c0.853-1.707,3.413-2.56,5.973-1.707l7.68,4.267c1.707,0.853,2.56,2.56,2.56,3.413c0,0.853,0,1.707-0.853,2.56
	C106.667,168.107,104.96,168.107,103.253,168.107z M339.627,107.52c-0.853,0-1.707,0-2.56-0.853c-1.707-0.853-2.56-2.56-2.56-3.413
	c0-0.853,0-1.707,0.853-2.56l4.267-7.68c0.853-1.707,3.413-2.56,5.973-1.707c1.707,0.853,2.56,2.56,2.56,3.413s0,1.707-0.853,2.56
	l-4.267,7.68C342.187,106.667,340.48,107.52,339.627,107.52z M166.4,106.667c-1.707,0-2.56-0.853-3.413-1.707l-4.267-7.68
	c0-0.853-0.853-1.707-0.853-2.56c0-1.707,0.853-2.56,1.707-3.413c1.707-0.853,4.267-0.853,5.973,1.707l4.267,7.68
	c0,0.853,0.853,1.707,0.853,2.56c0,1.707-0.853,2.56-1.707,3.413C168.107,106.667,167.253,106.667,166.4,106.667z"/>
</svg>